<svg width="37" height="37" viewBox="0 0 37 37" fill="none" xmlns="http://www.w3.org/2000/svg">
<path d="M10.633 29.3668C9.01075 29.3647 7.45105 28.7409 6.27481 27.6237C5.09857 26.5065 4.39527 24.981 4.30963 23.361C4.22399 21.7411 4.76252 20.1499 5.81442 18.915C6.86631 17.68 8.35154 16.8952 9.9645 16.722C9.48956 14.8595 9.77396 12.8846 10.7551 11.2318C11.7363 9.579 13.3338 8.38364 15.1963 7.9087C17.0588 7.43377 19.0337 7.71816 20.6865 8.69932C22.3394 9.68048 23.5347 11.278 24.0097 13.1405C25.1173 12.9863 26.2449 13.0616 27.3222 13.3619C28.3996 13.6621 29.4036 14.1807 30.2719 14.8856C31.1401 15.5905 31.8541 16.4664 32.3693 17.4591C32.8846 18.4517 33.1901 19.5397 33.2668 20.6554C33.3435 21.7712 33.1899 22.8907 32.8154 23.9445C32.4409 24.9983 31.8536 25.9638 31.0899 26.7809C30.3263 27.598 29.4028 28.2493 28.3767 28.6941C27.3506 29.139 26.244 29.368 25.1256 29.3668H10.633Z" fill="#B9B9B9"/>
</svg>
